<?xml version="1.0" encoding="UTF-8"?>
<svg width="86px" height="166px" viewBox="0 0 86 166" version="1.1" xmlns="http://www.w3.org/2000/svg" xmlns:xlink="http://www.w3.org/1999/xlink">
    <title>Untitled</title>
    <g id="Page-1" stroke="none" stroke-width="1" fill="none" fill-rule="evenodd">
        <g id="sort_down" transform="translate(0.250000, 0.500000)" fill="#033FFA" fill-rule="nonzero">
            <path d="M42.1077143,164.785722 C39.5687716,164.788947 37.1434048,163.733647 35.4151428,161.873714 C35.336098,161.798893 35.2583718,161.722691 35.182,161.645143 L2.8574285,129.325143 C-0.713802439,125.755174 -0.714825748,119.966088 2.85514287,116.394857 C6.4251115,112.823626 12.2141976,112.822603 15.7854285,116.392572 L32.9648572,133.572 L32.9648572,9.35714275 C32.9656921,4.3082726 37.0588442,0.215797358 42.1077144,0.215797358 C47.1565846,0.215797358 51.2497366,4.3082726 51.2505715,9.35714275 L51.2505715,133.7 L68.5534285,116.392571 C72.1246594,112.822603 77.9137455,112.823626 81.4837141,116.394857 C85.0536827,119.966088 85.0526594,125.755174 81.4814285,129.325143 L49.1614285,161.645143 C48.7957143,162.010857 48.4162858,162.330857 48.0185715,162.618857 C46.423143,163.972 44.3614287,164.785722 42.1077142,164.785722 L42.1077143,164.785722 Z" id="Path"></path>
        </g>
    </g>
</svg>