<?xml version="1.0" encoding="UTF-8"?>
<svg width="86px" height="166px" viewBox="0 0 86 166" version="1.1" xmlns="http://www.w3.org/2000/svg" xmlns:xlink="http://www.w3.org/1999/xlink">
    <title>Untitled 2</title>
    <g id="Page-1" stroke="none" stroke-width="1" fill="none" fill-rule="evenodd">
        <g id="sort_up" transform="translate(0.250000, 0.500000)" fill="#033FFA" fill-rule="nonzero">
            <path d="M42.2357143,0.21428575 C44.8734285,0.21428575 47.2551428,1.33428575 48.9237143,3.12628575 L49.1568573,3.35485725 L81.4814285,35.6748573 C85.0526594,39.2448259 85.0536827,45.0339119 81.4837141,48.6051429 C77.9137455,52.1763738 72.1246594,52.1773971 68.5534285,48.6074285 L51.374,31.428 L51.374,155.642857 C51.3745402,158.909646 49.6320396,161.928514 46.8030079,163.562064 C43.9739762,165.195614 40.4883095,165.195614 37.6592778,163.562064 C34.8302461,161.928514 33.0877456,158.909646 33.0882857,155.642857 L33.0882857,31.3 L15.7854285,48.6074285 C13.4752472,50.9167933 10.1085201,51.8182672 6.95346088,50.9722739 C3.79840165,50.1262805 1.33433877,47.6613464 0.489460881,44.5059883 C-0.355417005,41.3506302 0.547247152,37.984222 2.8574285,35.6748573 L35.1774285,3.35485725 C35.5431428,2.989143 35.9225712,2.669143 36.3202857,2.38114275 C37.9157142,1.028 39.9774285,0.21428575 42.2311428,0.21428575 L42.2357143,0.21428575 Z" id="Path"></path>
        </g>
    </g>
</svg>